# xmcd CD database file
#
# Track frame offsets:
#	150
#	12710
#	25689
#	37627
#	49642
#	64776
#	73930
#	86211
#	94799
#	109473
#	121481
#	129302
#	142038
#	153600
#	165216
#	173300
#	183351
#	193042
#	206800
#	222238
#
# Disc length: 3145 seconds
#
# Revision: 1
# Processed by: cddbd v1.4PL0 Copyright (c) Steve Scherf et al.
# Submitted via: CDex 1.40Release
#
DISCID=1a0c4714
DTITLE=Burnin' Ernie Hagar - Man of Steel
DYEAR=2001
DGENRE=Country
TTITLE0=Lickity Split
TTITLE1=Perdido
TTITLE2=My Elusive Dream
TTITLE3=How High the Moon
TTITLE4=Blue Jade
TTITLE5=Cherokee Maiden
TTITLE6=Morning
TTITLE7=Hi Jinks
TTITLE8=Desperado
TTITLE9=It Could Happen to You
TTITLE10=Swingin' Steel
TTITLE11=Blue Steel
TTITLE12=Tumbleweed
TTITLE13=At Sunrise
TTITLE14=Steel Boogie Twist
TTITLE15=Outside Inn
TTITLE16=Spacewalk
TTITLE17=Surf N' Sand
TTITLE18=String Duster Blues
TTITLE19=Spindrift
EXTD=YEAR: 2001 ID3G: 2
EXTT0=
EXTT1=
EXTT2=
EXTT3=
EXTT4=
EXTT5=
EXTT6=
EXTT7=
EXTT8=
EXTT9=
EXTT10=
EXTT11=
EXTT12=
EXTT13=
EXTT14=
EXTT15=
EXTT16=
EXTT17=
EXTT18=
EXTT19=
PLAYORDER=
